<svg width="258" height="258" viewBox="0 0 258 258" fill="none" xmlns="http://www.w3.org/2000/svg">
<path fill-rule="evenodd" clip-rule="evenodd" d="M129.01 187.152C139.614 194.69 153.03 198.459 169.256 198.459C179.988 198.459 189.251 196.607 197.044 192.902C204.838 189.197 210.779 184.086 214.867 177.57C218.956 170.926 221 163.452 221 155.147C221 147.226 218.956 140.646 214.867 135.408C210.779 130.17 205.924 126.081 200.302 123.143C194.808 120.204 187.781 117.138 179.221 113.944C171.811 111.133 166.381 108.769 162.931 106.853C159.609 104.808 157.949 102.253 157.949 99.1869C157.949 97.0149 158.523 95.354 159.673 94.2041C160.823 92.9264 162.292 92.2876 164.081 92.2876C166.636 92.2876 168.808 93.1181 170.597 94.779C172.386 96.4399 173.344 99.1869 173.472 103.02H219.275C218.764 89.0935 213.59 78.2975 203.752 70.6316C194.042 62.9658 180.882 59.1329 164.273 59.1329C154.435 59.1329 145.555 60.7299 137.634 63.924C137.626 63.9272 137.618 63.9305 137.61 63.9337V61.4326H95.2567V149.015C95.2567 153.103 94.554 155.978 93.1486 157.639C91.7432 159.3 89.7629 160.13 87.2076 160.13C84.1413 160.13 81.7137 159.044 79.9251 156.872C78.1364 154.573 77.242 150.676 77.242 145.182H35.2716C35.2716 162.558 40.1266 175.781 49.8366 184.853C59.5467 193.924 72.6425 198.459 89.1241 198.459C104.456 198.459 116.338 194.307 124.77 186.002C125.189 185.589 125.598 185.167 125.997 184.735C126.953 185.576 127.957 186.382 129.01 187.152ZM137.49 153.614H157.182C157.821 161.408 161.27 165.305 167.531 165.305C169.831 165.305 171.747 164.794 173.28 163.772C174.941 162.622 175.772 160.897 175.772 158.597C175.772 155.403 174.047 152.848 170.597 150.931C167.148 148.887 161.781 146.587 154.499 144.032C148.063 141.761 142.434 139.524 137.61 137.323V149.015C137.61 150.584 137.57 152.118 137.49 153.614Z" fill="white"/>
</svg>
